<?xml version="1.0"?>
<svg xmlns="http://www.w3.org/2000/svg" xmlns:xlink="http://www.w3.org/1999/xlink" xmlns:svgjs="http://svgjs.com/svgjs" version="1.1" width="512" height="512" x="0" y="0" viewBox="0 0 511 511.999" style="enable-background:new 0 0 512 512" xml:space="preserve" class=""><g transform="matrix(-1,0,0,1,512.9690551757812,0)"><path xmlns="http://www.w3.org/2000/svg" d="m417.535156 270.832031c-5.878906 0-11.457031-3.476562-13.855468-9.246093l-.390626-.9375c-3.179687-7.648438.441407-16.429688 8.089844-19.609376 7.648438-3.175781 16.429688.441407 19.609375 8.09375l.390625.9375c3.179688 7.648438-.441406 16.429688-8.089844 19.609376-1.882812.78125-3.832031 1.152343-5.753906 1.152343zm0 0" fill="#000000" data-original="#000000" style="" class=""/><path xmlns="http://www.w3.org/2000/svg" d="m508.269531 435.695312-76.882812-185.605468c-3.171875-7.652344-11.941407-11.289063-19.597657-8.121094-7.652343 3.171875-11.289062 11.945312-8.117187 19.601562l3.53125 8.519532-36.199219 49.984375c-4.078125-2.945313-9.535156-3.785157-14.527344-1.71875-7.652343 3.167969-11.285156 11.941406-8.117187 19.597656l57.976563 139.964844c5.640624 13.609375 16.242187 24.214843 29.855468 29.851562 6.808594 2.820313 13.960938 4.230469 21.113282 4.230469 7.152343 0 14.304687-1.410156 21.109374-4.230469 28.101563-11.640625 41.496094-43.972656 29.855469-72.074219zm0 0" fill="#dedede" data-original="#fef4f5" style="" class=""/><path xmlns="http://www.w3.org/2000/svg" d="m477.496094 172.109375-56.800782-56.800781c-5.859374-5.855469-15.355468-5.855469-21.210937 0l-52.46875 52.464844c-5.859375 5.855468-5.859375 15.351562 0 21.210937 5.855469 5.855469 15.351563 5.859375 21.210937.003906v-.003906l35.59375 35.59375c-5.859374 5.859375-5.859374 15.355469 0 21.210937 2.929688 2.929688 6.765626 4.394532 10.605469 4.394532 3.839844 0 7.675781-1.464844 10.605469-4.394532l52.464844-52.464843c5.859375-5.859375 5.859375-15.355469 0-21.214844zm0 0" fill="#dc0101" data-original="#00215a" style="" class=""/><path xmlns="http://www.w3.org/2000/svg" d="m279.519531 63.199219c0-16.882813-6.570312-32.753907-18.507812-44.6875-11.9375-11.9375-27.804688-18.511719-44.6875-18.511719-16.882813 0-32.75 6.574219-44.6875 18.511719-11.9375 11.933593-18.511719 27.804687-18.511719 44.683593v64.265626c0 3.980468 1.582031 7.792968 4.394531 10.609374 2.8125 2.8125 6.628907 4.390626 10.605469 4.390626h96.394531c3.976563 0 7.792969-1.578126 10.605469-4.390626 2.8125-2.816406 4.394531-6.628906 4.394531-10.609374zm0 0" fill="#75d677" data-original="#7fe881" style="" class=""/><path xmlns="http://www.w3.org/2000/svg" d="m275.125 138.066406c2.816406-2.8125 4.394531-6.625 4.394531-10.605468v-64.261719c0-16.882813-6.570312-32.753907-18.507812-44.6875-11.9375-11.9375-27.804688-18.511719-44.6875-18.511719v142.460938h48.195312c3.980469 0 7.792969-1.578126 10.605469-4.394532zm0 0" fill="#7ce07e" data-original="#1fbf66" style="" class=""/><path xmlns="http://www.w3.org/2000/svg" d="m279.519531 127.460938c0-8.28125-6.714843-15-15-15h-96.394531c-8.285156 0-15 6.71875-15 15v48.199218c0 3.976563 1.582031 7.792969 4.394531 10.605469s6.628907 4.394531 10.605469 4.394531h96.394531c3.980469 0 7.796875-1.582031 10.605469-4.394531 2.816406-2.816406 4.394531-6.628906 4.394531-10.605469zm0 0" fill="#c9c9c9" data-original="#ff637b" style="" class=""/><path xmlns="http://www.w3.org/2000/svg" d="m279.519531 127.460938c0-8.28125-6.714843-15-15-15h-48.195312v78.199218h48.195312c3.980469 0 7.796875-1.582031 10.605469-4.394531 2.816406-2.816406 4.394531-6.628906 4.394531-10.605469zm0 0" fill="#dedede" data-original="#ff1786" style="" class=""/><path xmlns="http://www.w3.org/2000/svg" d="m404.226562 188.582031c-18.007812-18.007812-41.945312-27.921875-67.410156-27.921875h-281.152344c-30.414062 0-55.164062 24.746094-55.164062 55.164063v80.332031c0 30.417969 24.746094 55.164062 55.164062 55.164062h281.152344c25.464844 0 49.402344-9.917968 67.410156-27.921874 18.003907-18.003907 27.921876-41.945313 27.921876-67.410157 0-25.460937-9.917969-49.402343-27.921876-67.40625zm0 0" fill="#dedede" data-original="#fef4f5" style="" class=""/><path xmlns="http://www.w3.org/2000/svg" d="m404.226562 188.582031c-18.007812-18.007812-41.945312-27.921875-67.410156-27.921875h-120.492187v190.660156h120.492187c25.464844 0 49.402344-9.917968 67.410156-27.921874 18.003907-18.003907 27.921876-41.945313 27.921876-67.410157 0-25.460937-9.917969-49.402343-27.921876-67.40625zm0 0" fill="#c9c9c9" data-original="#a8ebfa" style="" class=""/></g></svg>
